<?xml version="1.0" encoding="UTF-8" standalone="no"?>
<!-- Created with Inkscape (http://www.inkscape.org/) -->

<svg
   xmlns:dc="http://purl.org/dc/elements/1.1/"
   xmlns:cc="http://creativecommons.org/ns#"
   xmlns:rdf="http://www.w3.org/1999/02/22-rdf-syntax-ns#"
   xmlns:svg="http://www.w3.org/2000/svg"
   xmlns="http://www.w3.org/2000/svg"
   xmlns:sodipodi="http://sodipodi.sourceforge.net/DTD/sodipodi-0.dtd"
   xmlns:inkscape="http://www.inkscape.org/namespaces/inkscape"
   width="744.09448819"
   height="1052.3622047"
   id="svg2"
   version="1.1"
   inkscape:version="0.48.0 r9654"
   sodipodi:docname="if i mess this up she's gonna shoot you.svg">
  <defs
     id="defs4">
    <inkscape:path-effect
       effect="spiro"
       id="path-effect3520"
       is_visible="true" />
    <inkscape:path-effect
       effect="spiro"
       id="path-effect3516"
       is_visible="true" />
    <inkscape:path-effect
       effect="spiro"
       id="path-effect3488"
       is_visible="true" />
    <inkscape:path-effect
       effect="spiro"
       id="path-effect3480"
       is_visible="true" />
    <inkscape:path-effect
       effect="spiro"
       id="path-effect3246"
       is_visible="true" />
  </defs>
  <sodipodi:namedview
     id="base"
     pagecolor="#ffffff"
     bordercolor="#666666"
     borderopacity="1.0"
     inkscape:pageopacity="0.0"
     inkscape:pageshadow="2"
     inkscape:zoom="1.4"
     inkscape:cx="380.30996"
     inkscape:cy="792.31076"
     inkscape:document-units="px"
     inkscape:current-layer="a4351"
     showgrid="false"
     inkscape:window-width="1280"
     inkscape:window-height="962"
     inkscape:window-x="-8"
     inkscape:window-y="248"
     inkscape:window-maximized="1" />
  <metadata
     id="metadata7">
    <rdf:RDF>
      <cc:Work
         rdf:about="">
        <dc:format>image/svg+xml</dc:format>
        <dc:type
           rdf:resource="http://purl.org/dc/dcmitype/StillImage" />
      </cc:Work>
    </rdf:RDF>
  </metadata>
  <g
     inkscape:label="Layer 1"
     inkscape:groupmode="layer"
     id="layer1">
    <path
       style="fill:#000000;fill-opacity:1;fill-rule:nonzero;stroke:none"
       id="path3051"
       d="m 1.0252905,419.20806 c 6.5087496,0.95915 13.1132535,1.17533 19.6737605,1.6142 15.36427,1.16122 30.742198,2.38638 46.164997,2.11368 5.176953,-0.0915 10.348783,-0.37361 15.523175,-0.56042 38.733537,-2.81268 77.273737,-9.53599 114.702567,-19.93344 9.67281,-2.68704 19.1993,-5.87546 28.79895,-8.81318 67.32075,-22.29569 131.18032,-53.54401 195.14299,-83.85611 48.53199,-23.27299 24.07216,-11.66212 73.38284,-34.8255 0,0 0.35131,7.84678 0.35131,7.84678 l 0,0 c -49.30593,24.16043 -24.87697,11.9361 -73.29292,36.66094 -38.18949,19.30794 -31.0337,15.83589 -68.90492,34.41532 -41.37207,20.29693 -82.82949,40.5838 -126.14757,56.48758 -22.77592,8.01086 -33.54408,12.07416 -56.4359,19.06412 -28.67459,8.75571 -57.84274,16.0429 -87.297314,21.63069 -5.210163,0.90361 -10.403594,1.90966 -15.63049,2.71083 -15.36997,2.35588 -30.861504,3.37025 -46.357715,4.42427 -6.560507,0.43886 -13.1650109,0.65504 -19.6737605,1.61419 0,0 0,-40.59395 0,-40.59395 z"
       inkscape:connector-curvature="0" />
    <path
       style="fill:#000000;fill-opacity:1;fill-rule:nonzero;stroke:none"
       id="path3109"
       d="m 252.40614,387.28555 c -0.50976,3.95499 0.9327,6.80016 3.84902,9.52808 1.17957,1.10337 2.65382,1.84644 3.9124,2.85874 2.84448,2.28787 5.48755,4.81545 8.23651,7.21724 5.05926,4.08194 10.71936,7.20991 16.41279,10.28282 2.7648,1.49225 9.39298,5.14773 12.20827,6.38203 2.2741,0.99702 4.64652,1.75275 6.96979,2.62913 7.33244,3.93416 15.43399,5.34766 23.49926,6.86855 2.82367,0.53247 5.62823,1.18162 8.4728,1.58791 2.002,0.28594 16.51727,1.61422 18.43556,1.79309 19.034,1.46564 38.08615,2.82474 57.05208,5.03715 3.98734,0.20565 7.97467,0.4113 11.96201,0.61695 0,0 -0.8812,0.63424 -0.8812,0.63424 l 0,0 c -4.05818,-0.15357 -8.11636,-0.30714 -12.17454,-0.46072 -14.7011,0.71457 -29.43201,0.98413 -44.14814,0.41398 -3.1905,-0.12361 -6.37257,-0.42372 -9.56315,-0.54531 -3.32053,-0.12654 -6.64454,-0.13262 -9.96682,-0.19893 -11.28431,-1.10019 -7.3405,-0.79779 -18.78141,-1.57852 -3.29691,-0.22498 -6.60636,-0.30009 -9.89245,-0.64917 -9.25874,-0.98353 -18.35171,-3.26821 -27.61383,-4.24383 -7.84182,-1.92923 -15.85588,-3.69061 -23.4518,-6.48424 -6.72895,-2.47478 -6.29563,-2.86603 -12.59835,-5.97747 -2.05735,-1.01564 -4.16458,-1.92696 -6.24687,-2.89045 -2.17485,-0.77169 -4.34969,-1.54339 -6.52454,-2.31508 -2.10758,-0.61056 -4.24168,-1.13604 -6.32273,-1.83166 -1.72498,-0.57661 -3.32972,-1.5011 -5.08401,-1.98123 -5.50831,-1.50758 -11.36037,-1.6409 -16.98167,-0.88727 0,0 39.22102,-25.80603 39.22102,-25.80603 z"
       inkscape:connector-curvature="0" />
    <path
       style="fill:#000000;fill-opacity:1;fill-rule:nonzero;stroke:none"
       id="path3115"
       d="m 103.43421,432.46377 c 13.4176,-8.75235 24.25811,-20.80896 35.11143,-32.45272 12.32973,-14.15693 23.70349,-29.11382 35.59143,-43.64266 7.15628,-9.37792 14.70337,-18.44666 23.11135,-26.73906 1.16991,-1.15383 11.94436,-11.06086 13.29857,-12.30835 0,0 10.43057,-4.26339 10.43057,-4.26339 l 0,0 c -13.46155,12.11798 -26.26529,24.94527 -37.40356,39.27334 -7.247,9.48121 -3.53955,4.76263 -11.12676,14.15231 -1.77245,2.2891 -3.41961,4.67284 -5.16668,6.98137 -4.87891,6.44686 -10.09509,12.70144 -13.62698,20.04675 -1.85462,3.43089 -3.64867,6.89446 -5.51944,10.31658 -1.20721,2.2083 -4.86683,7.22718 -4.20038,10.06696 0.13144,0.56009 0.72028,0.89725 1.08043,1.34587 0,0 -41.57998,17.223 -41.57998,17.223 z"
       inkscape:connector-curvature="0" />
    <path
       style="fill:#008000"
       id="path3161"
       d="m 368.47955,298.31933 c -2.2808,1.23672 -4.53236,2.52827 -6.75,3.875 -2.01873,1.25234 -3.78568,2.85543 -5.6912,4.26567 -2.04676,1.56467 -4.13853,3.07117 -6.12465,4.71385 -2.79009,2.20593 -5.41704,4.60795 -8.15715,6.87388 -0.65898,0.53007 -1.47173,0.94982 -2.33481,0.9591 -1.03295,0.004 -1.94091,-0.61989 -2.66458,-1.30185 -0.6147,-0.57007 -1.39929,-1.25682 -2.29713,-1.05418 -0.8182,0.15868 -1.15343,1.02774 -1.26173,1.76228 -0.17435,1.35905 -0.30812,2.72905 -0.28125,4.10153 0.0478,1.04436 0.14828,2.08825 0.24544,3.13048 0.41166,4.42748 0.91082,8.8463 1.37956,13.26799 0.21376,1.43745 0.42701,2.87778 0.8125,4.28125 0.26839,1.09291 0.50065,2.20312 0.88815,3.26017 0.4791,1.00435 0.85993,2.09482 1.61611,2.93159 0.7349,0.8464 1.84185,1.25112 2.9278,1.38729 0.44492,0.0594 1.01082,-0.0829 1.13044,-0.57905 -1.03105,-0.15913 -2.22231,-0.20473 -2.96875,-1.03125 -0.88196,-1.00354 -1.34033,-2.29113 -1.78125,-3.53125 -0.41529,-1.26605 -0.6509,-2.5835 -0.82708,-3.90097 -0.10439,-1.47719 -0.33534,-2.96775 -0.0792,-4.44278 0.21946,-2.00231 0.8473,-3.92749 1.42632,-5.84745 0.56792,-1.74391 1.15524,-3.49378 2.01118,-5.1213 1.11756,-1.66383 2.60507,-3.02581 3.93294,-4.51495 2.26337,-2.45126 4.53022,-4.89943 6.81706,-7.3288 0.70859,-0.56233 1.21392,-1.35172 1.875,-1.9375 0.59846,-0.34513 1.76687,0.11931 1.2636,0.9143 -1.14969,2.45844 -2.65905,4.73114 -3.80024,7.19293 -0.59909,1.45819 -1.2076,2.91364 -1.68391,4.41804 -0.46567,1.34025 -0.82817,2.71359 -1.2482,4.06848 -0.18184,0.97799 0.47229,2.19683 1.55781,2.1875 1.02175,-0.0464 1.95529,-0.65365 2.9953,-0.59375 0.9115,0.0666 1.81328,0.99439 1.47814,1.9375 -0.21172,1.06155 -0.94172,1.91027 -1.38721,2.87708 -1.30641,2.47813 -2.75188,4.8791 -4.11072,7.32838 -0.83523,1.45582 -1.58707,2.9623 -2.48837,4.37849 -0.65539,0.96646 -1.31795,1.93301 -2.0762,2.8223 -0.71831,0.74987 -1.75629,1.08218 -2.77544,0.94856 -0.50638,-0.0446 -1.0038,-0.15375 -1.50581,-0.22981 0.78167,0.46969 1.64049,0.81516 2.54814,0.93511 0.83109,0.0799 1.60709,-0.31012 2.26436,-0.77886 1.22952,-1.11389 2.20504,-2.47038 3.22884,-3.76744 1.01488,-1.34377 2.0143,-2.69928 3.05611,-4.02271 1.60293,-2.09079 3.20587,-4.18157 4.8088,-6.27235 1.34376,-1.26144 2.69888,-2.53856 4.28125,-3.5 0.76784,-0.62415 1.64408,-1.08221 2.52274,-1.52679 0.85627,-0.26657 1.20039,-1.52101 0.57101,-2.16071 -0.71723,-0.68053 -1.7422,-0.85481 -2.58284,-1.33879 -0.86116,-0.39612 -1.65667,-0.92601 -2.43841,-1.45839 -0.80676,-0.59445 -1.52478,-1.31468 -2.135,-2.10907 -0.46309,-0.70883 -0.36895,-1.66259 0.0131,-2.38517 0.76061,-1.53304 1.91922,-2.81676 2.92362,-4.18957 0.97772,-1.33829 2.04042,-2.61575 2.96978,-3.98827 0.51724,-0.89979 1.04071,-1.82697 1.33837,-2.82294 0.25886,-0.935 0.57002,-1.85602 0.84051,-2.78864 0.30654,-1.06059 0.72764,-2.09912 1.35413,-3.01235 0.59059,-0.81718 1.22738,-1.61576 1.94823,-2.32585 1.08353,-1.0539 2.18006,-2.09454 3.26846,-3.14346 0.53232,-0.61249 0.22931,-2.2682 -0.84375,-1.8125 z"
       inkscape:connector-curvature="0" />
    <path
       style="fill:#008000"
       id="path3161-6"
       d="m 352.46766,392.48292 c -0.29087,2.21212 -0.43921,4.47453 -1.1875,6.59375 -0.31314,0.83085 -0.83657,1.58169 -1.52326,2.14915 -1.00643,0.76521 -2.24651,1.15809 -3.49578,1.2712 -1.69894,0.18063 -3.40678,0.27173 -5.10596,0.45465 -1.04083,0.22954 -2.12022,0.54983 -2.93317,1.26997 -1.12684,0.94776 -2.11579,2.05732 -3.31683,2.91753 -1.55088,1.24499 -3.02467,2.58869 -4.33754,4.08497 -0.67053,0.75239 -1.30906,1.55359 -1.71069,2.48591 -0.46921,0.94027 -0.87746,1.92809 -1.01915,2.97597 -0.20382,1.30371 -0.34004,2.63188 -0.16545,3.94765 0.0877,1.27486 0.27302,2.54051 0.57896,3.78182 0.37922,1.69842 0.90691,3.35984 1.29463,5.05659 0.32808,1.23278 0.65616,2.46556 0.98424,3.69834 0.13157,0.87845 -0.0674,2.07726 0.875,2.5625 1.10621,-0.31957 1.09766,-1.66116 1.27788,-2.58692 0.25112,-1.62728 0.50225,-3.25455 0.75337,-4.88183 0.0594,-1.05306 -0.35958,-2.03294 -0.87026,-2.92802 -0.66845,-1.21145 -1.48,-2.34837 -2.04138,-3.61671 -0.4671,-1.08983 -0.70842,-2.27037 -0.77586,-3.45058 -0.0765,-1.1002 0.0537,-2.20152 0.29111,-3.27657 0.21425,-0.91214 0.70359,-1.72324 1.26768,-2.46131 0.64413,-0.75969 1.2716,-1.53517 1.96592,-2.25234 0.9003,-0.98817 1.95174,-1.82432 2.93648,-2.72563 0.87593,-0.69487 1.60016,-1.61117 2.61583,-2.1086 0.95873,-0.33654 1.96616,-0.51155 2.95423,-0.74274 1.01623,-0.11533 2.03703,-0.16848 3.05781,-0.21875 0.35823,-0.0117 0.71836,0.006 1.06719,0.0937 -0.89064,0.53817 -1.7643,1.10275 -2.625,1.6875 -0.72789,0.74168 -1.36574,1.57291 -1.93129,2.44174 -0.51385,0.96009 -1.11223,1.89713 -1.35126,2.9738 -0.44134,1.76079 -0.83665,3.5359 -1.09245,5.33446 -0.13904,1.0438 -0.45349,2.04496 -0.77262,3.04414 -0.27588,1.05305 -0.70339,2.05526 -1.20006,3.02133 -0.68037,1.28484 -1.48633,2.5016 -2.09331,3.8259 -0.4598,0.90159 -0.83653,1.84808 -1.05831,2.83721 -0.49401,1.82619 -0.90215,3.67574 -1.4382,5.49017 -0.30453,0.84898 -0.63878,1.68753 -1.03125,2.5 0.86686,-0.70205 1.19156,-1.81166 1.69146,-2.76614 0.7591,-1.55712 1.51819,-3.11424 2.27729,-4.67136 0.68782,-0.7973 1.52594,-1.44654 2.4375,-1.96875 1.86161,-1.3019 3.58544,-2.7839 5.34375,-4.21875 0.87732,-0.83175 1.77068,-1.67119 2.4375,-2.6875 0.65126,-1.1422 0.80416,-2.46493 1.125,-3.71875 0.3125,-1.9375 0.625,-3.875 0.9375,-5.8125 0.29317,-1.24372 0.75184,-2.44641 1.375,-3.5625 0.99047,-1.98937 2.02642,-3.95552 3.03125,-5.9375 0.65541,-1.47368 1.13711,-3.02708 1.39678,-4.619 0.12219,-0.95904 0.26098,-1.93578 0.11013,-2.89861 -0.15575,-0.80686 0.0256,-2.07087 -0.88191,-2.41989 l -0.125,0.0312 z"
       inkscape:connector-curvature="0" />
    <path
       style="fill:#008000"
       id="path3161-4"
       d="m 211.95285,279.7968 c -0.70909,0.55469 -0.26513,1.51926 0.25,2.03125 0.75701,0.76291 1.58825,1.45917 2.34312,2.23064 0.95807,0.88382 1.82166,1.87341 2.50692,2.98486 0.55725,0.85065 1.08837,1.72738 1.51273,2.6518 0.39495,0.7933 0.52976,1.72787 0.32328,2.59381 -0.22008,1.00089 -0.5777,1.96734 -0.98151,2.90822 -0.51432,1.29134 -1.08206,2.56402 -1.78587,3.76414 -0.53047,0.92004 -1.09417,1.82973 -1.75639,2.66158 -1.14467,1.38427 -2.32314,2.74127 -3.57497,4.03046 -0.94737,1.01396 -1.89363,2.04815 -2.61551,3.23946 -0.43629,0.71812 -0.69956,1.54174 -0.81555,2.37253 -0.15422,0.98222 0.0319,1.95998 0.125,2.9375 0.11638,0.97225 0.31076,1.95195 0.70675,2.85101 0.50887,0.96049 1.55687,1.48716 2.54325,1.83649 0.78685,0.3867 1.93827,0.16371 2.0625,-0.84375 0.13371,-1.02828 -0.14947,-2.07811 -0.0443,-3.1194 0.0185,-1.12964 1.10977,-1.68513 1.95842,-2.1818 1.3655,-0.70554 2.78945,-1.29325 4.17964,-1.9488 0.88327,-0.58165 1.33578,-1.55063 1.84375,-2.4375 0.39699,-0.85308 0.53431,-1.79542 0.58527,-2.72923 0.0285,-1.36941 0.0398,-2.74031 0.0665,-4.10977 -0.11206,-1.97812 0.1714,-3.94615 0.46668,-5.89654 0.0684,-1.01237 0.4914,-2.04028 0.19403,-3.04571 -0.14474,-0.83899 -0.66714,-1.61431 -0.75,-2.4375 0.35061,-0.82556 1.50048,-0.24243 1.57719,0.45967 0.59941,0.79752 1.08003,1.67947 1.56315,2.54949 0.46238,0.99814 0.83369,2.04017 1.06318,3.11743 0.27636,1.02471 0.34378,2.08228 0.48562,3.12964 0.16587,1.12004 0.38735,2.23295 0.6165,3.34182 0.27597,1.22488 0.53307,2.45382 0.78811,3.6832 0.0618,1.00006 -0.0149,2.00287 -0.0937,3 -0.25435,1.33333 -0.68232,2.62744 -1.26228,3.85431 -0.39968,0.9405 -0.85014,1.92218 -1.70819,2.53346 -0.76535,0.63316 -1.73774,0.8575 -2.66592,1.13977 -2.06834,0.659 -4.17395,1.21766 -6.17611,2.06621 -0.77717,0.48954 -1.71153,0.62906 -2.47722,1.14383 -0.18415,0.17728 -0.48364,0.30943 -0.58528,0.54367 0.76577,0.261 1.60336,0.13017 2.375,-0.0625 0.94727,-0.20577 1.91273,0.0457 2.87031,0 1.51886,0.007 3.03375,-0.12282 4.55291,-0.13982 1.01582,-0.0205 2.06578,-0.0567 2.98303,-0.54768 0.8665,-0.42082 1.59104,-1.21856 1.79234,-2.17784 0.18386,-0.94569 0.49358,-1.85626 0.86802,-2.7424 0.65451,-1.66819 1.23932,-3.36639 1.67515,-5.10554 0.35399,-1.03755 0.20383,-2.15444 0.27652,-3.23182 0.0299,-1.34937 -0.0575,-2.69917 0.0304,-4.04779 0.04,-1.52034 0.15588,-3.03966 0.16066,-4.5601 -0.0348,-1.38021 -0.13684,-2.76481 -0.37204,-4.1259 -0.2155,-1.0158 -0.64117,-2.0363 -1.36859,-2.78986 -0.93197,-0.95823 -2.03547,-1.72166 -3.0314,-2.60843 -1.80218,-1.48569 -3.5871,-2.99311 -5.3961,-4.47 -1.17669,-0.8974 -2.3931,-1.74391 -3.63747,-2.54352 -0.98989,-0.5791 -1.99165,-1.14865 -3.07181,-1.54381 -0.35659,-0.16953 -0.78257,-0.27687 -1.17572,-0.20924 z"
       inkscape:connector-curvature="0" />
    <path
       style="fill:#008000"
       id="path3161-9"
       d="m 415.05459,443.94379 c 1.01042,-1.5 2.02083,-3 3.03125,-4.5 -0.34731,0.82508 -0.96759,1.55551 -0.99761,2.48564 -0.02,0.30804 0.0303,0.9456 0.49761,0.76436 0.34095,-0.30287 0.77591,-0.52515 1.03125,-0.9375 0.63335,-0.76271 1.5067,-1.41281 2.52565,-1.48694 0.94056,-0.11539 1.82782,0.29523 2.56565,0.8381 0.97368,0.63745 1.85845,1.40133 2.68821,2.21564 0.81422,0.71409 1.46558,1.59265 2.32748,2.25521 0.77405,0.59684 1.5104,1.36293 2.51801,1.52174 0.73515,0.14925 1.7324,-0.46971 1.41853,-1.30077 -0.16606,-0.89982 -0.60111,-1.71174 -0.8779,-2.57733 -0.27582,-0.77212 -0.47949,-1.60709 -0.32308,-2.42722 0.14415,-0.90461 0.7572,-1.67758 1.50244,-2.17998 0.74971,-0.64731 1.75286,-0.78765 2.67506,-1.04303 1.60222,-0.32258 3.24762,-0.31055 4.85495,-0.59667 1.11938,-0.0786 2.22977,-0.25875 3.33391,-0.44932 1.16481,-0.2784 2.35611,-0.53917 3.4019,-1.1489 0.96898,-0.48715 1.9391,-0.97193 2.88919,-1.49553 0.96773,-0.59836 1.74521,-1.44876 2.39155,-2.37624 0.62943,-0.86317 1.22177,-1.75408 1.79595,-2.65501 0.54929,-0.71525 1.26958,-1.6708 0.75,-2.59375 -0.49247,-0.68868 -1.53164,-0.50806 -1.99201,0.1179 -0.72694,0.65253 -1.42909,1.42103 -2.41424,1.66335 -0.84289,0.12124 -1.6983,-0.19971 -2.36851,-0.69858 -0.65177,-0.53705 -1.54329,-0.65808 -2.32994,-0.369 -0.82624,0.37484 -1.52649,1.03017 -2.42655,1.25508 -0.99789,0.29636 -1.95448,-0.25016 -2.9319,-0.36194 -1.04699,-0.15205 -1.9225,0.67889 -2.43402,1.50521 -0.54321,0.69536 -1.01083,1.47892 -1.72783,2.01298 -0.77608,0.67199 -1.75449,0.97495 -2.75832,1.0981 -1.06576,0.13645 -2.15259,0.16733 -3.2177,0.002 -2.05678,-0.30561 -4.10896,-0.64034 -6.15439,-1.01494 -0.88064,-0.15841 -1.8185,0.0334 -2.59681,0.46464 -0.81304,0.48163 -1.4014,1.24985 -1.98448,1.97657 -0.66973,0.88613 -1.4094,1.72348 -2.00509,2.66269 -0.56722,0.93227 -1.038,1.91981 -1.4761,2.91789 -0.40739,0.99101 -0.74172,2.0176 -0.97033,3.06422 -0.10266,0.5033 -0.18749,1.00985 -0.27428,1.51605 l 0.0625,-0.125 z m 6.28125,-8.53125 c 0.66473,-0.55953 1.52532,-0.83934 2.36801,-0.99763 1.03459,-0.1867 2.08,-0.30361 3.13199,-0.31487 1.52978,0.116 3.06259,0.18607 4.59375,0.28125 1.5012,-0.13896 2.94865,-0.59661 4.375,-1.0625 1.07108,-0.35832 1.98045,-1.04758 2.9375,-1.625 0.97382,-0.546 2.11288,-0.15773 3.05201,0.27633 0.91635,0.40781 1.90567,0.70581 2.72924,1.28617 0.30725,0.25674 0.6944,0.65215 0.375,1.0625 -0.72596,0.8163 -1.93966,0.49792 -2.89319,0.77046 -2.19208,0.31447 -4.38508,0.62292 -6.57556,0.94829 -1.01823,0.25689 -1.96844,0.69582 -2.91874,1.13281 -0.89394,0.43437 -1.6644,1.0853 -2.50218,1.61655 -0.83642,0.41414 -1.89716,0.25678 -2.66634,-0.22919 -0.90028,-0.54689 -1.78888,-1.13476 -2.75943,-1.55134 -0.94132,-0.37366 -1.94857,-0.90222 -2.98593,-0.63948 -0.90584,0.18579 -1.5972,0.81856 -2.22988,1.4519 0.65625,-0.80208 1.3125,-1.60417 1.96875,-2.40625 z"
       inkscape:connector-curvature="0" />
    <path
       style="fill:#aa0000"
       id="path3322"
       d="m 456.5405,243.82959 c 0.46215,-0.64863 0.74598,-1.39437 1.04195,-2.12713 0.53128,-1.48886 0.92835,-3.02494 1.27031,-4.56749 0.32928,-1.3258 0.53158,-2.67984 0.88425,-4.0001 0.21685,-0.8118 0.34374,-1.15619 0.60614,-1.94765 0.4419,-1.18209 1.0788,-2.27639 1.99934,-3.15188 0.51727,-0.49195 0.79674,-0.63136 1.39049,-1.01118 0.36629,-0.17894 0.72029,-0.38559 1.09886,-0.53682 0.25405,-0.10149 0.52329,-0.16276 0.79119,-0.21822 0.58652,-0.12143 0.90877,-0.14564 1.49403,-0.0319 0.64386,0.12519 0.741,0.23176 1.31103,0.53643 0.18703,0.163 0.38937,0.30996 0.56111,0.48901 0.77579,0.80883 1.24587,1.89315 1.44832,2.98591 0.0549,0.29615 0.0681,0.59853 0.10209,0.8978 0.009,1.26252 -0.25818,2.5066 -0.868,3.62058 -0.36302,0.66315 -0.63171,0.92648 -1.1128,1.50014 -0.2115,0.20379 -0.411,0.4208 -0.63449,0.61136 -0.89798,0.76565 -2.02575,1.33803 -3.19298,1.54149 -0.20668,0.036 -0.41762,0.0407 -0.62644,0.061 -0.17841,-0.0228 -0.36102,-0.0236 -0.53524,-0.0682 -0.45391,-0.11639 -0.81713,-0.40448 -0.94616,-0.86732 -0.11314,-0.40583 -0.0388,-0.66148 0.009,-1.07462 0.14832,-0.67633 0.43646,-1.31076 0.81958,-1.8866 0.13836,-0.20795 0.30051,-0.39904 0.45076,-0.59856 0,0 0.5968,-0.25818 0.5968,-0.25818 l 0,0 c -0.5198,0.74031 -0.93581,1.35498 -0.9746,2.29185 0.0236,0.33023 0.0139,0.61392 0.14565,0.9244 0.14388,0.33913 0.46362,0.68749 0.80029,0.84113 0.13173,0.0601 0.2775,0.0828 0.41625,0.12426 0.15984,0.0102 0.31947,0.0366 0.47952,0.0305 1.23912,-0.047 2.11691,-0.74679 2.97037,-1.57857 0.50173,-0.58799 0.74992,-0.81996 1.12928,-1.50042 0.45118,-0.80926 0.71549,-1.73829 0.79017,-2.66115 0.0244,-0.30103 0.002,-0.60402 0.003,-0.90603 -0.0425,-0.29276 -0.0606,-0.59013 -0.1276,-0.87829 -0.24834,-1.0687 -0.80093,-2.12209 -1.64444,-2.83687 -0.19302,-0.16356 -0.41394,-0.29102 -0.62091,-0.43652 -0.53406,-0.26689 -0.70473,-0.39555 -1.29268,-0.5191 -0.85596,-0.17988 -1.69462,-0.0111 -2.507,0.27168 -0.61364,0.37961 -0.95334,0.55079 -1.49225,1.04362 -0.96414,0.88168 -1.65775,2.0128 -2.15142,3.21154 -0.1168,0.32213 -0.24546,0.64021 -0.35042,0.96639 -0.51024,1.58571 -0.76223,3.24493 -0.96277,4.89333 -0.0709,0.56103 -0.12442,1.12418 -0.19689,1.68501 -0.11148,0.86272 -0.27259,1.71892 -0.42187,2.57557 -0.0793,0.59308 -0.22535,1.17502 -0.27389,1.77203 0,0 -1.67733,0.78774 -1.67733,0.78774 z"
       inkscape:connector-curvature="0" />
    <path
       style="fill:#aa0000"
       d="m 457.7691,242.90456 c -0.58944,0.11107 -1.1819,0.22495 -1.75066,0.41806 -0.49828,0.18163 -0.98045,0.41365 -1.42661,0.70051 -0.46453,0.30205 -0.86468,0.68966 -1.27409,1.06013 -0.47352,0.45362 -0.90345,0.95326 -1.30134,1.47413 -0.36326,0.46735 -0.64076,0.99206 -0.92339,1.5098 -0.31472,0.62794 -0.52939,1.29867 -0.74121,1.9665 -0.20854,0.72557 -0.34338,1.47132 -0.43151,2.22064 -0.0612,0.74069 -0.0895,1.48651 -0.0117,2.22714 0.0438,0.58151 0.12662,1.16164 0.25583,1.73036 0.15466,0.67056 0.34171,1.33468 0.60647,1.97091 0.29645,0.73017 0.65145,1.44079 1.09277,2.09479 0.53333,0.76835 1.23576,1.40766 2.00712,1.93114 0.49737,0.27124 1.08683,0.34789 1.64423,0.28034 0.53922,-0.0862 1.04013,-0.30929 1.5349,-0.53051 0.45763,-0.20858 0.96457,-0.24354 1.45413,-0.32437 0.62683,-0.12575 1.25471,-0.24685 1.88136,-0.37399 0.31905,-0.0915 0.64133,-0.18492 0.92055,-0.37117 0.33693,-0.20123 0.65122,-0.44423 0.91707,-0.73337 0.32679,-0.29232 0.47795,-0.72166 0.7578,-1.0531 0.19346,-0.35713 0.37466,-0.72133 0.59013,-1.06561 0.23005,-0.49627 0.56753,-0.94266 0.71786,-1.47424 0.16271,-0.51596 0.27959,-1.0459 0.39001,-1.5751 0.1183,-0.68938 0.16461,-1.39111 0.11124,-2.0892 -0.0575,-1.00051 -0.20787,-1.99295 -0.35303,-2.98367 -0.21275,-1.18856 -0.54865,-2.35843 -1.03059,-3.46638 -0.13884,-0.31447 -0.28073,-0.62805 -0.464,-0.91942 -0.23814,-0.38579 -0.52517,-0.7425 -0.83719,-1.07124 -0.27244,-0.25679 -0.55741,-0.49935 -0.87556,-0.69837 -0.44554,-0.33222 -0.97781,-0.52657 -1.52154,-0.62418 -0.61746,-0.1308 -1.24389,-0.2329 -1.87648,-0.24096 l -0.0601,0.01 -0.002,4e-4 z"
       id="path3324"
       inkscape:connector-curvature="0" />
    <a
       id="a4351">
      <path
         inkscape:connector-curvature="0"
         id="path3328"
         d="m 452.20896,256.09907 c -0.86315,0.27297 -1.68558,0.65982 -2.52633,0.99351 -1.10292,0.46706 -2.19817,0.95685 -3.23462,1.55995 -0.86748,0.47975 -1.68449,1.05247 -2.45267,1.67844 -0.7904,0.65499 -1.55015,1.36169 -2.12947,2.21587 -0.73417,0.98168 -1.29544,2.08641 -1.67296,3.25186 -0.35451,1.10861 -0.59627,2.25038 -0.90894,3.3713 -0.23365,0.78368 -0.45691,1.57239 -0.79413,2.31949 -0.39538,0.96135 -1.02342,1.8012 -1.68273,2.59633 -1.84466,2.32795 -3.76509,4.59693 -5.5329,6.98488 -0.76696,1.03206 -1.50923,2.09015 -2.09533,3.23724 -0.37732,0.81726 -0.69803,1.75448 -0.44338,2.65478 0.24888,0.74387 0.82223,1.31255 1.38015,1.83878 1.40511,1.30053 2.98408,2.3934 4.51199,3.54177 1.87239,1.34515 3.90279,2.5253 6.13733,3.14755 1.47832,0.40259 2.99368,0.78814 4.53895,0.7125 1.65067,-0.0539 3.27197,-0.55312 4.70239,-1.37142 1.18444,-0.65177 2.23578,-1.51469 3.24499,-2.40733 1.36578,-1.2586 2.57073,-2.71859 3.37802,-4.40035 0.70485,-1.38721 1.17947,-2.88301 1.51586,-4.39902 0.53508,-2.58283 0.69141,-5.22487 0.77835,-7.85549 0.0851,-2.33398 0.17276,-4.67216 0.059,-7.00657 -0.0927,-1.62262 -0.26812,-3.24162 -0.58859,-4.83608 -0.37326,-1.96412 -0.96854,-3.89333 -1.84886,-5.69119 -0.36464,-0.67649 -0.788,-1.39035 -1.51296,-1.72792 -0.83226,-0.40688 -1.78561,-0.45908 -2.69569,-0.43013 -0.0425,0.007 -0.085,0.0142 -0.12748,0.0212 z"
         style="fill:#aa0000" />
    </a>
    <path
       style="fill:#aa0000"
       id="path3380"
       d="m 430.18584,283.54682 c -0.37657,0.21678 -0.75214,0.43551 -1.0986,0.69873 -0.41264,0.27901 -0.82403,0.56334 -1.26751,0.79182 -0.41466,0.28588 -0.86822,0.50915 -1.30905,0.75114 -0.34919,0.18095 -0.67475,0.40472 -0.9824,0.64861 -0.34179,0.23745 -0.69217,0.46394 -1.04702,0.67976 -0.37311,0.17788 -0.74751,0.35298 -1.12274,0.52634 -0.30837,0.0171 -0.62929,0.44846 -0.28143,0.65667 0.24316,0.17954 0.5621,0.12581 0.84429,0.16677 0.48728,0.0525 0.97901,0.0321 1.46797,0.0163 0.35204,-0.005 0.69115,-0.10279 1.02934,-0.19071 0.54085,-0.15011 1.01209,-0.4691 1.52857,-0.68071 0.49037,-0.23148 0.99826,-0.42298 1.51937,-0.57287 0.43494,-0.16925 0.9019,-0.27506 1.29893,-0.52733 0.30031,-0.19828 0.33642,-0.6001 0.18737,-0.90268 -0.0943,-0.30755 -0.24217,-0.5965 -0.31597,-0.91099 -0.0965,-0.36505 -0.0626,-0.76679 -0.24265,-1.10914 -0.0534,-0.0561 -0.13819,-0.0646 -0.20847,-0.0417 z"
       inkscape:connector-curvature="0" />
    <path
       style="fill:#aa0000"
       id="path3390"
       d="m 430.62362,284.6934 c -1.16851,1.08597 -2.47259,2.01045 -3.77326,2.92897 -1.10908,0.75357 -2.1934,1.5432 -3.31613,2.27676 -1.04671,0.70393 -2.09111,1.41283 -3.17846,2.0533 -0.89895,0.56017 -1.80488,1.11086 -2.68455,1.70067 -0.26916,0.23264 -0.5967,0.38709 -0.84816,0.64024 -0.58901,0.45042 -1.15628,0.92847 -1.7496,1.37353 -0.99422,0.77748 -2.0427,1.48194 -3.06067,2.22748 -0.85587,0.61036 -1.71076,1.22466 -2.50669,1.91275 -0.57498,0.46842 -1.11043,0.98609 -1.60014,1.54274 -0.19572,0.20587 -0.41027,0.53631 -0.19294,0.80273 0.25829,0.296 0.67756,0.13767 0.99863,0.0601 0.75089,-0.15358 1.48791,-0.39796 2.15165,-0.78574 0.49958,-0.24921 0.95373,-0.57857 1.41142,-0.89584 1.19362,-0.90398 2.36908,-1.83397 3.61023,-2.67296 0.7912,-0.49136 1.55467,-1.02602 2.35456,-1.50355 1.06385,-0.67825 2.17968,-1.26979 3.26224,-1.91707 1.53204,-0.91022 3.06651,-1.81943 4.53461,-2.83112 1.69801,-1.15498 3.38517,-2.32577 5.06674,-3.50455 0.30699,-0.28196 0.36761,-0.73403 0.29185,-1.12572 -0.0461,-0.62002 -0.093,-1.24042 -0.18762,-1.85536 10e-4,-0.2562 0.0553,-0.67562 -0.29185,-0.71922 -0.0973,0.0973 -0.19457,0.19457 -0.29186,0.29186 z"
       inkscape:connector-curvature="0" />
    <path
       style="fill:#aa0000"
       id="path3396"
       d="m 431.24902,287.15332 c -3.27004,2.19774 -6.56552,4.35731 -9.83544,6.55526 -1.35641,0.90725 -2.71556,1.8104 -4.06935,2.72155 -0.44561,0.258 -0.90828,0.49923 -1.40716,0.63583 -0.56372,0.11377 -1.12662,0.23219 -1.68859,0.35439 -0.25293,0.14858 -0.36025,0.46706 -0.35439,0.74735 0.0307,0.30733 -0.019,0.61876 -0.0949,0.91476 -0.11442,0.3111 -0.28089,0.59984 -0.40579,0.90791 -0.15232,0.31971 -0.39932,0.59199 -0.5417,0.91139 -0.0976,0.35382 0.30393,0.56352 0.60455,0.47948 0.55205,-0.14267 1.11341,-0.2529 1.65732,-0.42736 0.49074,-0.1413 0.9775,-0.30006 1.43411,-0.5314 0.66663,-0.29853 1.28174,-0.69662 1.9118,-1.06338 1.46756,-0.95936 2.9185,-1.9439 4.38151,-2.91019 2.09909,-1.39145 4.18563,-2.80175 6.29531,-4.17717 0.70169,-0.46781 1.40134,-0.9387 2.10225,-1.4077 0.24548,-0.22919 0.38298,-0.57651 0.33346,-0.91226 -0.0502,-0.90883 -0.10704,-1.81725 -0.16668,-2.7255 -0.0148,-0.0655 -0.0965,-0.10323 -0.15636,-0.073 z"
       inkscape:connector-curvature="0" />
    <path
       style="fill:#aa0000"
       id="path3422"
       d="m 433.3754,287.61194 c -0.9009,0.74829 -1.84264,1.44524 -2.79778,2.12228 -1.58706,1.1425 -3.14978,2.32775 -4.84548,3.30803 -0.86543,0.49479 -1.73919,0.97902 -2.55287,1.55732 -0.54491,0.3698 -1.07769,0.75862 -1.57188,1.19473 -0.55027,0.38453 -1.09951,0.77296 -1.69475,1.0862 -0.29361,0.1882 -0.67313,0.29783 -0.85732,0.614 -0.21131,0.32104 -0.0682,0.69796 0.002,1.03803 0.0989,0.46459 0.23903,0.92055 0.42407,1.35816 0.12845,0.29241 0.41661,0.51811 0.74831,0.45001 0.42748,-0.052 0.77432,-0.33496 1.14875,-0.52297 0.64298,-0.32741 1.1619,-0.83714 1.73302,-1.26851 0.73208,-0.58639 1.39463,-1.25232 2.06109,-1.91062 0.30958,-0.32776 0.59668,-0.68024 0.96037,-0.95175 0.33945,-0.25938 0.70367,-0.49187 1.11103,-0.62938 0.48558,-0.175 0.95946,-0.37884 1.42158,-0.60878 0.31883,-0.14456 0.61134,-0.33935 0.91421,-0.51354 1.01884,-0.65574 2.02535,-1.33053 3.00709,-2.04083 0.44255,-0.32058 0.89836,-0.62332 1.33094,-0.95732 0.22412,-0.21082 0.37251,-0.50555 0.35412,-0.81847 0.0149,-0.48731 -0.0816,-0.96681 -0.12999,-1.44969 -0.0695,-0.47164 -0.0391,-0.95666 -0.15117,-1.42171 -0.13044,-0.17789 -0.29768,0.15553 -0.43158,0.21136 -0.0611,0.0512 -0.12226,0.1023 -0.18339,0.15345 z"
       inkscape:connector-curvature="0" />
    <path
       style="fill:#aa0000"
       id="path3428"
       d="m 434.0008,288.55005 c -0.545,0.40164 -1.07435,0.82896 -1.67001,1.15549 -0.63661,0.37143 -1.29067,0.71159 -1.93957,1.06056 -0.77336,0.41995 -1.43063,1.01149 -2.12328,1.54679 -0.54781,0.45842 -1.08308,0.93121 -1.61563,1.40716 -0.23388,0.29648 -0.11413,0.69765 0.12508,0.94853 0.19063,0.28723 0.38161,0.58724 0.43233,0.93456 0.12395,0.32439 0.0505,0.69179 0.2035,1.00419 0.13183,0.26947 0.48688,0.308 0.726,0.16843 0.25844,-0.20821 0.45324,-0.48141 0.69197,-0.71086 0.39102,-0.41963 0.75827,-0.86106 1.15448,-1.27594 0.50053,-0.56882 0.95324,-1.17746 1.44055,-1.75685 0.30586,-0.35121 0.66602,-0.64698 1.00065,-0.96938 0.31034,-0.20647 0.68928,-0.25253 1.04365,-0.34221 0.46482,-0.11387 0.94026,-0.18467 1.39542,-0.33531 0.32278,-0.12035 0.42986,-0.49991 0.37524,-0.81302 -0.11427,-0.62151 -0.13202,-1.2556 -0.17305,-1.88475 -0.057,-0.27872 -0.016,-0.61564 -0.15007,-0.8566 -0.31559,0.17918 -0.59002,0.47333 -0.8898,0.69666 l -0.0275,0.0225 z"
       inkscape:connector-curvature="0" />
    <path
       style="fill:#550000"
       d="m 464.5092,251.02607 c 0.0521,0.3199 0.19344,0.62709 0.1772,0.95582 -0.0321,0.35052 -0.0575,0.70801 0.0104,1.0559 0.0904,0.33183 0.15056,0.68765 0.0538,1.02514 -0.0213,0.0822 -0.0429,0.16433 -0.0642,0.24651 1.26123,-0.18415 2.52246,-0.36829 3.78369,-0.55244 -0.30404,-0.21083 -0.60385,-0.42748 -0.89887,-0.65075 -0.38956,-0.29356 -0.77771,-0.58927 -1.17365,-0.87414 -0.30655,-0.20725 -0.60998,-0.41925 -0.91832,-0.62379 -0.32682,-0.20798 -0.65365,-0.41596 -0.98047,-0.62394 l 0.0104,0.0417 z"
       id="rect3567"
       inkscape:connector-curvature="0" />
    <path
       sodipodi:type="arc"
       style="fill:#ffffff"
       id="path4341"
       sodipodi:cx="271.35223"
       sodipodi:cy="73.650635"
       sodipodi:rx="3.0304577"
       sodipodi:ry="3.1567266"
       d="m 274.38269,73.650635 a 3.0304577,3.1567266 0 1 1 -6.06091,0 3.0304577,3.1567266 0 1 1 6.06091,0 z"
       transform="matrix(0.33354834,0,0,0.33354834,370.5328,225.60322)" />
  </g>
</svg>
